<svg width="39" height="39" viewBox="0 0 39 39" fill="none" xmlns="http://www.w3.org/2000/svg">
<circle cx="19.5" cy="19.5" r="19.5" fill="#F2F2F2"/>
<path d="M28.5556 9C29.2039 9 29.8256 9.25754 30.284 9.71596C30.7425 10.1744 31 10.7961 31 11.4444V28.5556C31 29.2039 30.7425 29.8256 30.284 30.284C29.8256 30.7425 29.2039 31 28.5556 31H11.4444C10.7961 31 10.1744 30.7425 9.71596 30.284C9.25754 29.8256 9 29.2039 9 28.5556V11.4444C9 10.7961 9.25754 10.1744 9.71596 9.71596C10.1744 9.25754 10.7961 9 11.4444 9H28.5556ZM27.9444 27.9444V21.4667C27.9444 20.4099 27.5247 19.3965 26.7774 18.6492C26.0302 17.902 25.0167 17.4822 23.96 17.4822C22.9211 17.4822 21.7111 18.1178 21.1244 19.0711V17.7144H17.7144V27.9444H21.1244V21.9189C21.1244 20.9778 21.8822 20.2078 22.8233 20.2078C23.2771 20.2078 23.7124 20.3881 24.0333 20.709C24.3542 21.0298 24.5344 21.4651 24.5344 21.9189V27.9444H27.9444ZM13.7422 15.7956C14.2868 15.7956 14.8091 15.5792 15.1941 15.1941C15.5792 14.8091 15.7956 14.2868 15.7956 13.7422C15.7956 12.6056 14.8789 11.6767 13.7422 11.6767C13.1944 11.6767 12.669 11.8943 12.2817 12.2817C11.8943 12.669 11.6767 13.1944 11.6767 13.7422C11.6767 14.8789 12.6056 15.7956 13.7422 15.7956ZM15.4411 27.9444V17.7144H12.0556V27.9444H15.4411Z" fill="black"/>
</svg>
